<svg xmlns="http://www.w3.org/2000/svg" width="1000" height="1000" viewBox="0 0 1000 1000">
<path fill="#FAF9F5" d="M 269.5 903.7 L 272.1 752.5 L 423.1 747.2 L 427.5 583.3 L 585.1 580.8 L 585.9 418.8 L 740.9 415.5 L 743.9 254.4 L 898 250.8 L 902.3 484.1 L 903.5 895.9 Z"/>
<path fill="#FAF9F5" d="M 851.5 51.1 L 948.4 92.7 L 850.1 147.1 Z"/>
<path fill="#141413" d="M 166.8 959.7 L 166.6 954.7 L 166.2 949.9 L 166.3 944.9 L 165.9 939.9 L 165.2 934.9 L 164.1 929.8 L 163.2 924.4 L 161.6 918.7 L 159.7 912.5 L 155.2 906.9 L 150 901.6 L 144.2 898.7 L 139.9 897 L 137.3 894.8 L 134.2 892.2 L 130.7 889 L 127.3 885.6 L 123.9 881.8 L 120.5 877.9 L 117 874.1 L 112.7 871.3 L 109.1 868.1 L 106 864.6 L 102.3 861.8 L 99.7 857.9 L 96 854.9 L 93.2 851.2 L 91.5 846.8 L 89.3 842.9 L 86.5 839.3 L 84.6 835.1 L 82.7 830.7 L 80.6 826.4 L 78.6 821.8 L 76.2 818.1 L 75.3 816.3 L 76.1 815.1 L 77.6 812.7 L 79.5 809.6 L 81.3 806.9 L 83.5 804.4 L 85.3 803.5 L 86.2 802.3 L 88.8 802.7 L 92.2 805 L 95.3 806.2 L 97.3 807.4 L 99.3 809.6 L 102.1 812.8 L 103.9 817 L 106.6 821.3 L 109.3 826.1 L 112.2 830.5 L 115 835 L 118.7 839 L 122.1 843.5 L 126.1 847.5 L 129.9 851.5 L 133.8 854.9 L 137.6 857.9 L 140.9 861.2 L 144.5 864.4 L 147.8 868.4 L 151.8 872 L 155.3 875.1 L 158.7 878 L 163 882.7 L 172.6 887 L 183.9 883.3 L 189.2 877 L 192.1 871.6 L 194.5 866.5 L 196.3 861.3 L 198.1 856.1 L 199.6 850.8 L 200.5 845.3 L 202 839.9 L 201.9 834.3 L 202 829 L 202.8 823.8 L 202.7 818.6 L 202.2 813.5 L 201.9 808.4 L 201.5 803.3 L 201.8 798.3 L 201.5 793.3 L 201.4 788.3 L 201.4 783.1 L 201.3 777.9 L 200.9 772.6 L 199.9 767.5 L 199.8 762.6 L 199.4 758 L 199 753.5 L 199 748.9 L 199.7 744.2 L 199.5 739.4 L 200.6 734.6 L 201.4 729.8 L 202.3 725 L 202.7 720.2 L 202.7 715.3 L 204.4 710.7 L 204.8 705.8 L 206.2 701.2 L 206.6 696.3 L 207 691.5 L 208.8 686.9 L 209.4 682.1 L 211 677.5 L 212.1 672.7 L 213.9 668.2 L 214.8 663.4 L 216 658.7 L 217.9 654.2 L 219 649.5 L 220.9 645 L 222.5 640.3 L 224.7 635.8 L 226.1 631.9 L 227.6 630.6 L 229.1 629.6 L 230.8 628.2 L 232.5 629.1 L 235.1 629.8 L 237.1 630.7 L 238.3 631.8 L 239 634.5 L 239.5 637.9 L 239 640.5 L 238.4 643.6 L 237.3 647.8 L 235.3 652.3 L 234.2 657.2 L 231.8 661.9 L 230.7 667.1 L 229 672.2 L 228 677.4 L 226.1 682.2 L 225.5 687.3 L 225.3 692.3 L 224.3 697 L 223 701.7 L 220.8 706.2 L 219.7 711.3 L 219 716.6 L 218.4 722.2 L 217.5 727.6 L 216.8 733 L 217.2 738.3 L 216.8 743.5 L 216.7 748.6 L 216.8 753.4 L 216.5 758.1 L 216.2 762.9 L 216.3 768.1 L 216.7 773.6 L 216 780.1 L 218.5 787.5 L 223.2 794.4 L 229.7 798.9 L 237.7 801 L 246.9 801.2 L 255 796.7 L 259.7 791.2 L 262.3 785.8 L 266 781.5 L 267.6 776.2 L 270.4 771.5 L 272.4 766.4 L 274.4 761.1 L 275.6 755.2 L 276 749.1 L 276.4 743.4 L 275.7 738 L 275.7 733 L 275.5 728.3 L 276.8 723.9 L 277.2 719.7 L 276.9 715 L 278.4 710.5 L 279.5 705.8 L 279.9 700.8 L 280.8 695.8 L 281.8 690.8 L 283 685.7 L 283.9 680.5 L 284.1 675.4 L 285.6 670.7 L 286.9 666 L 286.9 661.2 L 288.1 656.8 L 289.3 652.6 L 290.3 648.2 L 291.3 643.7 L 293.6 639.6 L 295.2 634.9 L 297.4 630.4 L 300.4 626.1 L 302.4 621.2 L 303.4 615.9 L 305.9 611.4 L 307.6 606.6 L 308.7 601.7 L 309.8 596.9 L 311.3 592.3 L 313.1 588.3 L 314.6 586.9 L 316 586.8 L 319.6 585.2 L 322.8 583.3 L 323.2 582.6 L 324.4 583.5 L 326.7 585.4 L 328.1 587.4 L 330 590.4 L 330.8 593.1 L 330.9 594.5 L 329.5 597 L 327.9 601.3 L 325.7 605.7 L 323.9 610.4 L 321.3 614.7 L 318.3 619.1 L 316.9 624.2 L 314.7 628.9 L 312 633.3 L 310.5 638.2 L 308.5 643 L 306.6 647.9 L 305.3 653.1 L 303.7 658.3 L 302.8 663.6 L 302 668.9 L 300.5 673.9 L 300.2 679 L 299 683.8 L 298.2 688.6 L 298.1 693.5 L 296.6 698.2 L 296.2 703.2 L 295.1 708.1 L 294.5 713.3 L 292.5 718.3 L 292.5 723.7 L 292.2 728.9 L 291.9 734 L 291 739.2 L 290.6 744.7 L 291.5 750.7 L 291.9 757.3 L 294.9 763.7 L 298.7 769.4 L 303.9 773.9 L 310 779.2 L 319.8 781 L 327.8 776.9 L 333.8 773.1 L 338.4 768.6 L 341.2 762.8 L 344.7 757.2 L 346.6 750.9 L 348 745.1 L 347.5 739.6 L 347.9 734.5 L 348.1 729.7 L 349.3 725.3 L 349.2 720.8 L 350.3 716.2 L 351.6 711.5 L 352.8 706.8 L 355.1 702.3 L 355.5 697.3 L 357 692.5 L 357.5 687.4 L 358.9 682.5 L 360.4 677.7 L 360.9 672.8 L 362.3 668.2 L 363.8 663.6 L 365.6 659.3 L 366.5 654.5 L 369.1 650.4 L 370.9 646 L 372.6 641.5 L 374.1 636.8 L 376.8 632.7 L 378.4 628.1 L 380.2 623.6 L 383.2 619.7 L 385.8 615.5 L 388.2 611.3 L 390.4 606.9 L 392.8 602.6 L 395.8 598.6 L 397.3 595 L 398.4 594.8 L 398.8 593.8 L 401.4 594 L 403 595.3 L 405.1 596 L 406.7 597.5 L 408 599 L 407.9 601.8 L 408 603.6 L 407.3 606.4 L 404.9 610.3 L 402.9 614.7 L 400.4 619 L 398 623.4 L 396.8 628.5 L 394.2 633.1 L 391.9 637.7 L 390.7 642.8 L 388.4 647.4 L 386.3 652.1 L 384.8 657 L 383.2 661.9 L 381.2 666.7 L 379.3 671.5 L 378.4 676.6 L 377.4 681.6 L 376 686.6 L 374.1 691.3 L 373.2 696.4 L 371.4 701.2 L 371 706.4 L 369.7 711.3 L 368.9 716.4 L 367.6 721.4 L 366.9 726.3 L 365.6 731 L 364.7 736 L 364 741.3 L 363.3 747.1 L 363.2 753.3 L 363.7 759.7 L 365.7 765.5 L 367.6 771 L 370.4 776.1 L 373.3 781.7 L 378.9 787.1 L 387.4 791.5 L 396.4 789.9 L 403.2 787.4 L 408.5 783.5 L 413.2 778.5 L 417 772.2 L 419.4 765.7 L 419.9 759.9 L 420.5 754.7 L 420.9 750.1 L 421.6 745.8 L 423 741.3 L 423.7 736.5 L 425.9 732.1 L 427.3 727.4 L 427.9 722.6 L 429.3 717.8 L 430.7 713.2 L 433 708.8 L 434.6 704.3 L 436.7 700.1 L 438.4 695.8 L 439.7 691.2 L 441.8 686.9 L 443.8 682.5 L 447 678.7 L 448.7 674 L 451.5 669.9 L 454 665.7 L 455.8 661.1 L 458.5 657.1 L 461.7 653.7 L 463.7 650.2 L 465.5 647.9 L 468.1 646.9 L 470.9 646.8 L 472.7 646.5 L 474.3 646.7 L 476.1 648.1 L 476.9 650.5 L 478 652.8 L 478.3 655.5 L 478 658.4 L 477.1 661.9 L 474 665.5 L 472.4 670.1 L 469.5 674.2 L 467.1 678.6 L 464.7 683.1 L 462.1 687.4 L 459.4 691.7 L 457.4 696.4 L 455 700.9 L 452.2 705.3 L 449.9 709.8 L 447.9 714.6 L 446.1 719.6 L 444.4 724.9 L 442.7 730.2 L 441.3 735.6 L 439.8 740.7 L 439.6 745.7 L 438.5 748.9 L 438.4 749.5 L 436 751.3 L 429 758 L 427.8 769.3 L 431 777.1 L 435.2 782.1 L 439.1 786.8 L 443.4 790.5 L 447.4 794.1 L 451.7 797.2 L 455.4 800.7 L 459.8 803.3 L 463.8 806.4 L 467.8 809.3 L 472.1 811.9 L 475.9 815 L 479.6 818.2 L 483.8 820.8 L 487.5 823.9 L 490.7 827.5 L 494.6 830.3 L 497.8 833.8 L 500.9 837.3 L 504.2 840.6 L 507.9 843.3 L 510.4 847.1 L 513.2 850.4 L 515.3 854.1 L 517.2 857.7 L 518.6 861.5 L 520.2 865.2 L 520.7 869.2 L 521.4 873.4 L 521.9 877.7 L 521.4 882.1 L 521.9 886.6 L 521 891.1 L 520.3 895.7 L 519.3 900.3 L 517.7 904.8 L 517.5 909.7 L 516.1 914.3 L 515 919.1 L 513 923.7 L 512 928.5 L 510.9 933.4 L 509.9 938.4 L 508.3 943.1 L 507.5 948.1 L 506.2 953 L 505.6 958.1 L 519.6 962 L 522.3 957.6 L 523.8 952.9 L 525.1 948.1 L 526.6 943.4 L 528.4 938.7 L 530.3 934.1 L 531.5 929.2 L 532.5 924.2 L 534 919.3 L 535.7 914.4 L 537.2 909.4 L 537.9 904.2 L 539.7 899.2 L 540 893.8 L 541.3 888.5 L 541.1 883 L 542 877.4 L 541.7 871.7 L 540.8 866.1 L 539.7 860.2 L 538.5 854.4 L 536.2 848.8 L 532.9 843.9 L 530.1 838.9 L 526.7 834.4 L 522.9 830.4 L 519.7 825.9 L 516.1 822.1 L 512.4 818.1 L 508.2 814.8 L 503.9 811.9 L 499.7 808.8 L 496 805.2 L 491.7 802.3 L 487.9 798.9 L 484 795.7 L 480 792.6 L 475.7 790 L 471.7 787 L 467.5 784.4 L 463.6 781.5 L 460 778.4 L 456.5 775.4 L 453.2 772.6 L 450.8 769.5 L 448.7 766.9 L 447.7 765.6 L 447.4 767.4 L 447.5 767.4 L 453.6 764.1 L 458.3 756.2 L 459.8 749.7 L 461.3 744.9 L 462.2 740.3 L 463.2 736 L 463.5 731.5 L 465.4 727.4 L 467.5 723.2 L 470 719.1 L 471.5 714.4 L 473.9 710.1 L 475.9 705.7 L 477.7 701.2 L 479.5 696.5 L 482 692.1 L 484.3 687.8 L 486.1 683.1 L 489 679 L 490.7 674 L 492.8 669 L 495.6 663.3 L 496.8 656.3 L 496.4 649.1 L 494.2 642 L 489.9 635.8 L 484.2 630.5 L 476.3 627.5 L 468.3 627.9 L 461.2 629.5 L 454.9 633.1 L 449.5 637.7 L 445.9 642.6 L 442.9 647.1 L 440.5 651.8 L 438.1 656.3 L 435.3 660.5 L 432.9 665 L 430.2 669.3 L 427.4 673.5 L 425.4 678.4 L 422.4 682.7 L 420.7 687.8 L 418.1 692.5 L 417 697.7 L 414.5 702.3 L 413.1 707.3 L 411.4 712.1 L 409.7 716.9 L 408.4 721.9 L 407.2 726.9 L 405.7 731.9 L 404.7 736.9 L 403.6 742.2 L 402.3 747.7 L 402.6 753.1 L 402.2 757.9 L 401.6 762 L 400.7 765 L 399.6 767.5 L 396.6 768.9 L 393.9 771.1 L 391.3 772 L 390.5 772.5 L 390.4 772.2 L 388.9 770.4 L 386.7 767.3 L 385.3 763.4 L 383.4 759.6 L 382.6 755.7 L 382.6 752.1 L 383 748.4 L 382.6 744.1 L 384.6 739.8 L 385.3 734.9 L 385.3 729.7 L 385.9 724.7 L 387.2 720 L 388.3 715.2 L 389.3 710.4 L 390.9 705.8 L 391.8 701 L 392.4 696.1 L 394.1 691.5 L 395.4 686.8 L 397.2 682.2 L 398.5 677.5 L 400.1 673 L 401.8 668.4 L 403.2 663.8 L 405.4 659.4 L 406.7 654.8 L 408.4 650.2 L 410.3 645.7 L 412.4 641.4 L 414.9 637.2 L 417.5 633 L 419.3 628.4 L 421.1 623.7 L 423.3 619 L 426 614.3 L 428.8 607.6 L 428.5 599.6 L 426.9 592.5 L 423.5 585.1 L 417.6 580.2 L 411.3 575.8 L 403.7 573.6 L 396 573.5 L 387.5 576.6 L 381.2 582.8 L 377.4 587.7 L 375.1 592.2 L 373.3 597 L 370.5 601.3 L 368.4 606 L 366 610.5 L 363.9 615.2 L 361.1 619.6 L 358.8 624.2 L 356.5 628.8 L 354.7 633.6 L 352.2 638.2 L 351 643.3 L 349.1 648.1 L 346.6 652.8 L 344.8 657.8 L 343.9 663.1 L 343.2 668.2 L 341.6 673.1 L 340.5 677.9 L 339.2 682.7 L 337.2 687.3 L 335.9 692.1 L 334.8 697 L 333.1 701.8 L 332.8 707 L 331.5 712 L 330.6 717.2 L 329.1 722.6 L 328.6 728 L 328.2 733.2 L 328.2 738.1 L 327.2 742.6 L 327.1 746.7 L 325.4 749.8 L 324.4 753 L 322.5 756 L 319.9 758.5 L 318.1 760.9 L 317.3 761.1 L 317.2 761.7 L 315.9 760.2 L 313.8 757.9 L 312.4 755.1 L 310.9 752.4 L 311.1 749 L 311.3 745 L 310.6 740.4 L 311.1 735.7 L 311.8 730.9 L 312.9 726.1 L 314 721.6 L 313.7 716.7 L 314.9 712.1 L 316 707.3 L 317.9 702.5 L 318.1 697.4 L 319.2 692.3 L 320.1 687.2 L 321.6 682.4 L 322.3 677.5 L 322.9 672.7 L 323.2 668 L 324.5 663.6 L 325.9 659.2 L 326.7 654.5 L 329 650.3 L 330 645.6 L 331.9 641.1 L 333.6 636.5 L 335.1 631.9 L 337.6 627.8 L 338.8 623 L 340.9 618.6 L 343.4 614.3 L 345.9 609.8 L 348.3 604.9 L 350.3 597.9 L 350.5 589.5 L 347.9 582.8 L 344.7 577.1 L 340.6 570.8 L 334.4 567.5 L 327.2 562.7 L 317.6 563.7 L 311.5 565.6 L 306.4 568.7 L 299.7 573.5 L 295.4 580.1 L 294.2 585.7 L 292.6 590.7 L 290.4 595.3 L 288.4 599.9 L 286.8 604.6 L 285.5 609.3 L 283.4 613.6 L 281.1 617.7 L 279.6 622.3 L 277.4 626.8 L 275.3 631.5 L 273.7 636.6 L 271.7 641.6 L 269.4 646.7 L 267.5 652 L 266.4 657.3 L 265.9 662.6 L 265.5 667.7 L 265.2 672.8 L 264.3 677.7 L 263.7 682.4 L 262.4 687 L 261.7 691.8 L 260.1 696.5 L 259.1 701.5 L 258 706.5 L 257.3 711.8 L 256.4 717.1 L 255.6 722.8 L 255.8 728.4 L 256.5 733.7 L 256.8 738.6 L 256.9 743.3 L 256.5 747.6 L 256 751.5 L 254.8 755.3 L 253.4 759.4 L 252 763.7 L 249.7 767.7 L 247.7 771.8 L 246.1 775.9 L 243.4 779 L 241.5 781 L 241.2 782 L 240.5 782.2 L 238.7 781.5 L 237 780.1 L 235.3 779.1 L 235.9 776.6 L 235 773.1 L 235.5 768.7 L 236 763.8 L 236.1 758.6 L 235.4 753.3 L 235 748.2 L 235.2 743.2 L 235 738.4 L 234.8 733.7 L 235.5 729.2 L 235.6 724.7 L 237 720.5 L 237.5 715.8 L 239.5 711.4 L 240.3 706.3 L 242.3 701.5 L 243.1 696.4 L 244.2 691.4 L 246.1 686.8 L 246.6 681.9 L 247.4 677.2 L 248.9 672.8 L 250.6 668.4 L 252.8 664.1 L 254.9 659.6 L 255.7 654.4 L 257.6 649.1 L 260.1 642.7 L 259.1 635.4 L 258.1 628.9 L 255.2 622.1 L 249.8 615.6 L 242.8 612.2 L 236 609.6 L 227.8 609.2 L 220.2 611.8 L 213.7 616.7 L 208.9 623 L 207.5 628.9 L 205.6 633.5 L 204.2 638.4 L 202 643 L 199.8 647.6 L 197.6 652.3 L 196.6 657.5 L 194.6 662.3 L 192.6 667 L 191 671.9 L 189.8 676.9 L 188.2 681.8 L 187.2 686.9 L 186.1 691.9 L 184.2 696.8 L 183.5 701.9 L 182.5 707 L 181.8 712.1 L 181.8 717.3 L 180.7 722.4 L 180.3 727.5 L 180.1 732.6 L 180.1 737.8 L 179 743 L 179.7 748.3 L 179.2 753.7 L 179.7 759.1 L 180.1 764.5 L 180.9 769.5 L 180.9 774.4 L 181 779.1 L 181.9 783.8 L 182 788.7 L 181.9 793.7 L 182.2 798.7 L 181.8 803.7 L 181.8 808.6 L 181.4 813.5 L 181.4 818.4 L 180.7 823.2 L 181.1 827.9 L 180.9 832.6 L 179.4 837 L 179.1 841.4 L 178 845.7 L 177.5 850.2 L 176.4 854.5 L 174.8 858.7 L 172.9 862.6 L 171.8 866.5 L 171.2 868.4 L 173.8 867.6 L 174.5 868.1 L 172.1 865.2 L 168.3 861.4 L 164.7 857.4 L 160.9 854.7 L 157.7 851 L 154.1 847.3 L 149.6 844.3 L 145.6 841 L 142.3 837.3 L 139.1 834.3 L 136 831.3 L 133.3 827.9 L 130.8 824.1 L 128.2 820.2 L 125.2 816.5 L 123.6 812.2 L 121.6 807.7 L 118.7 803.1 L 116.2 797.7 L 111.4 792.7 L 105.5 788.1 L 99.4 785.7 L 93.7 783.4 L 86.3 782.6 L 77.5 783.5 L 70.5 787.2 L 65.5 791.9 L 61.6 797.3 L 58.2 802.6 L 55.6 809.3 L 54.2 817.9 L 56.7 825.6 L 59 830.8 L 61.2 835.3 L 63.2 840.1 L 65.3 844.9 L 68.2 849.4 L 71.1 854.1 L 73.8 858.9 L 77.4 863 L 80.9 867.1 L 84.5 871 L 87.8 875.1 L 91 879.5 L 95.1 883 L 98.6 886.8 L 102.2 890.3 L 106 893.3 L 109.8 896.4 L 113.4 899.7 L 117.2 903.2 L 120.8 907 L 125.3 911 L 131.1 914.2 L 136.1 916.3 L 139.6 917.2 L 141.7 918.8 L 143.1 921.3 L 144.1 924.7 L 145.5 928.6 L 146.7 933 L 148 937.6 L 148.7 942.5 L 148.8 947.5 L 150.2 952.5 L 151.1 957.5 L 153.1 962.3 Z"/>
<path fill="#141413" d="M 167.4 961 L 166.7 964.1 L 164.7 966.6 L 161.8 968 L 158.6 968 L 155.7 966.6 L 153.7 964.1 L 153 961 L 153.7 957.9 L 155.7 955.3 L 158.6 954 L 161.8 954 L 164.7 955.3 L 166.7 957.9 Z"/>
<path fill="#141413" d="M 519.8 960 L 519 963.2 L 517 965.7 L 514.2 967.1 L 511 967.1 L 508.1 965.7 L 506.1 963.2 L 505.4 960 L 506.1 956.9 L 508.1 954.4 L 511 953 L 514.2 953 L 517 954.4 L 519 956.9 Z"/>
<path fill="#141413" d="M 866.1 224.1 L 867.8 219.1 L 869.1 214.2 L 869.4 209.2 L 869.6 204.2 L 870.1 199.2 L 870.3 194.2 L 869.6 189.2 L 870.1 184.2 L 870.5 179.2 L 870.2 174.2 L 870.8 169.2 L 870.6 164.2 L 870.3 159.2 L 870.2 154.2 L 870.9 149.2 L 870.7 144.2 L 870.9 139.2 L 870.5 134.2 L 870.8 129.2 L 871.1 124.2 L 871.4 119.2 L 871.7 114.2 L 871.5 109.2 L 872 104.2 L 871.8 99.2 L 872.1 94.2 L 872 89.2 L 872.5 84.2 L 872.6 79.2 L 872.2 74.2 L 871.9 69.2 L 872.6 64.2 L 872 59.2 L 872.5 54.2 L 871.3 49.2 L 870.8 44.2 L 869.8 40.1 L 854.1 39.9 L 852.6 43.9 L 851.5 48.9 L 851.5 53.9 L 851.4 58.9 L 850.5 63.9 L 850.5 68.9 L 850.3 73.9 L 851.2 78.9 L 849.9 83.9 L 850.9 88.9 L 850.2 93.9 L 850.4 98.9 L 850.4 103.9 L 850.9 108.9 L 850.4 113.9 L 850.6 118.9 L 850.1 123.9 L 850.6 128.9 L 850.4 133.9 L 849.9 138.9 L 850.5 143.9 L 849.9 148.9 L 850.3 153.9 L 850.1 158.9 L 849.4 163.9 L 849.3 168.9 L 849.5 173.9 L 849.6 178.9 L 849.8 183.9 L 849.6 188.9 L 849.9 193.9 L 849.2 198.9 L 848.9 203.9 L 849.5 208.9 L 850.3 213.9 L 850.6 218.9 L 852.6 223.9 Z"/>
<path fill="#141413" d="M 866.5 224 L 865.8 227.1 L 863.8 229.6 L 860.9 231 L 857.7 231 L 854.8 229.6 L 852.8 227.1 L 852.1 224 L 852.8 220.9 L 854.8 218.4 L 857.7 217 L 860.9 217 L 863.8 218.4 L 865.8 220.9 Z"/>
<path fill="#141413" d="M 869.2 40 L 868.5 43.1 L 866.5 45.6 L 863.6 47 L 860.4 47 L 857.5 45.6 L 855.5 43.1 L 854.8 40 L 855.5 36.9 L 857.5 34.4 L 860.4 33 L 863.6 33 L 866.5 34.4 L 868.5 36.9 Z"/>
<path fill="#141413" d="M 351 524.7 L 352.9 519.8 L 354.5 514.8 L 355.4 509.8 L 356.9 504.9 L 356.8 499.8 L 357.6 494.9 L 357.9 489.9 L 358.7 485 L 358.8 480 L 359.1 475.1 L 360.1 470.2 L 360.2 465.3 L 361.2 460.4 L 361.9 455.6 L 362.5 450.7 L 363.8 446 L 364.4 441.2 L 365 436.3 L 366 431.7 L 367.4 427.1 L 368.5 422.6 L 369.3 418.1 L 370.9 414 L 372.8 410.4 L 375.1 407 L 377.4 403.7 L 380 400.7 L 382.9 397.7 L 386.5 395.3 L 389.7 392.6 L 393.5 390.7 L 397.2 388.3 L 401.4 387 L 405.6 386 L 409.5 383.9 L 413.8 383.1 L 418.1 383.4 L 422.1 383 L 425.8 384.1 L 429.1 384.9 L 432.3 385.9 L 435 387.9 L 438.4 389.7 L 440.7 392.9 L 443.3 396.1 L 445.7 399.6 L 448 403.3 L 449.6 407.5 L 451.7 411.5 L 453.1 416 L 454 420.6 L 455.2 425 L 456.1 429.6 L 456.6 434.2 L 457.9 438.7 L 458 443.5 L 458.6 448.3 L 458.8 453.2 L 459.1 458 L 460.1 462.9 L 460.6 467.7 L 460.8 472.6 L 461.1 477.6 L 462.2 482.5 L 461.9 487.5 L 461.9 492.4 L 462.6 497.4 L 462 502.4 L 462.8 507.3 L 462.1 512.3 L 463 517.3 L 463.7 522.2 L 463.6 527.2 L 463.8 532.2 L 463.7 537.3 L 464 542.3 L 465.2 547.3 L 465.4 552.4 L 467.7 554.7 L 482.9 553.9 L 484.2 551.4 L 484.5 546.4 L 485.1 541.5 L 484.3 536.5 L 484.6 531.5 L 484.9 526.5 L 484.3 521.5 L 484.5 516.5 L 484.7 511.5 L 484.7 506.4 L 484 501.4 L 483.6 496.4 L 483.2 491.4 L 482.8 486.4 L 482.3 481.4 L 481.8 476.3 L 481.9 471.3 L 482.5 466.1 L 481.7 461.1 L 481.2 456 L 481 450.9 L 480.1 445.8 L 479.5 440.6 L 478 435.6 L 477.6 430.3 L 476.5 425 L 475.1 419.8 L 473 414.8 L 471.4 409.7 L 469.8 404.6 L 467.6 399.6 L 464.9 394.8 L 462.8 389.4 L 460 384.4 L 456.1 379.9 L 451.9 375.4 L 447.4 371 L 441.8 367.4 L 435.3 365.5 L 429 364.2 L 422.8 363.9 L 416.8 364 L 411.1 364.2 L 405.5 365.8 L 400 367 L 394.6 368.6 L 389.5 371 L 383.9 372.5 L 379.4 376.2 L 374.6 379.4 L 369.9 382.7 L 365.8 386.8 L 361.9 391.4 L 358.2 396 L 355.7 401.4 L 352.9 406.6 L 351.3 412 L 349.1 417 L 348.6 422.4 L 346.6 427.3 L 346.1 432.5 L 344.6 437.5 L 342.9 442.4 L 342.6 447.6 L 341.9 452.6 L 340.9 457.7 L 341 462.8 L 340 467.8 L 339.5 472.8 L 338.6 477.8 L 337.9 482.8 L 337.9 487.8 L 336.8 492.8 L 336.2 497.7 L 335.8 502.7 L 336.3 507.7 L 336.2 512.7 L 336 517.5 L 336.6 522.6 Z"/>
<path fill="#141413" d="M 351.1 523.6 L 350.4 526.8 L 348.4 529.3 L 345.5 530.7 L 342.3 530.7 L 339.4 529.3 L 337.4 526.8 L 336.7 523.6 L 337.4 520.5 L 339.4 518 L 342.3 516.6 L 345.5 516.6 L 348.4 518 L 350.4 520.5 Z"/>
<path fill="#141413" d="M 482.4 554.3 L 481.7 557.4 L 479.7 559.9 L 476.8 561.3 L 473.6 561.3 L 470.7 559.9 L 468.7 557.4 L 468 554.3 L 468.7 551.2 L 470.7 548.7 L 473.6 547.3 L 476.8 547.3 L 479.7 548.7 L 481.7 551.2 Z"/>
<path fill="#141413" d="M 481.2 554.3 L 482 549.3 L 483.4 544.3 L 484.8 539.3 L 485.3 534.3 L 485.6 529.3 L 485.7 524.2 L 485.8 519.2 L 485.1 514.2 L 486.1 509.2 L 486.1 504.2 L 485.5 499.2 L 485.9 494.2 L 485.7 489.2 L 486.1 484.2 L 486.7 479.2 L 486.3 474.2 L 486.6 469.2 L 486.8 464.2 L 486.7 459.2 L 487 454.3 L 487.5 449.3 L 487.8 444.3 L 487.7 439.3 L 488.2 434.3 L 488.5 429.4 L 488.7 424.4 L 489 419.5 L 488.5 414.4 L 488.5 409.4 L 489.3 404.5 L 488.9 399.6 L 490.3 394.6 L 491 389.7 L 491.7 384.7 L 491.8 379.8 L 492.1 374.9 L 492.1 369.9 L 492.4 364.9 L 493.3 360 L 493.7 355.2 L 494.6 350.4 L 495.7 345.5 L 495.9 340.5 L 496.3 335.7 L 496.5 331 L 497.9 326.2 L 499 321.4 L 499.2 316.8 L 500.1 312.2 L 501.7 307.7 L 503.6 303.8 L 505.5 299.8 L 507.7 296.3 L 510.2 293.1 L 512.2 289.8 L 514.2 286.5 L 517.4 284.2 L 520.6 282.8 L 524 280.7 L 527.4 279.5 L 531 277.8 L 535 276.9 L 539.1 277.2 L 543.5 277 L 547.9 277.3 L 552.3 277.6 L 557 278 L 561.7 278.7 L 566.6 279.3 L 571.4 279.6 L 575.4 280.1 L 578.7 281.8 L 581.8 283.7 L 585.1 285.8 L 588.5 288.3 L 591.5 291.2 L 594.1 294.7 L 597.2 298 L 599.5 302 L 602.4 305.6 L 605.2 309.3 L 607.1 313.6 L 608.9 318 L 611.2 322.1 L 614 325.7 L 614.9 329.9 L 616.6 333.9 L 617.6 338.3 L 618.1 342.9 L 620 347.4 L 619.8 352.2 L 621 356.9 L 621.4 361.8 L 621.5 366.6 L 622.6 371.5 L 622.6 376.5 L 623.1 381.5 L 624.2 386.6 L 626.1 391.9 L 639.7 390.6 L 640.2 385.3 L 639.6 380.5 L 640.2 375.5 L 639.9 370.5 L 639.9 365.4 L 639.9 360.3 L 638.7 355.2 L 638.8 350 L 637.9 344.8 L 637.5 339.6 L 637.3 334.2 L 636.4 328.7 L 634.3 323.3 L 632.4 317.9 L 630.3 312.8 L 628 308 L 625.2 303.5 L 622.5 298.9 L 619.8 294.2 L 617.4 289.4 L 613.7 285.4 L 610.3 281 L 606.3 277 L 601.7 273.4 L 597.5 269.3 L 592.5 266 L 587 263 L 581 260.8 L 575.3 259.1 L 570.1 258.4 L 565.1 257.5 L 560 256.3 L 554.7 255.5 L 549.2 255.2 L 543.6 255.1 L 537.9 254.8 L 532 255.6 L 526.3 256.8 L 520.3 258 L 514.6 260.8 L 509.1 263.4 L 503.9 267.2 L 499.8 271.8 L 494.9 275.7 L 491.7 280.8 L 488.9 286.1 L 486.4 291.4 L 484 296.4 L 483.1 302.2 L 481.5 307.1 L 480.9 312.5 L 478.9 317.6 L 478.2 322.7 L 477.8 327.7 L 476.8 332.9 L 475.6 338 L 475.1 343 L 474.8 348 L 474.4 353.1 L 473.8 358.2 L 472.8 363.2 L 472.5 368.1 L 472.5 373.2 L 471.6 378.2 L 470.8 383.3 L 471.5 388.4 L 471.1 393.3 L 470.8 398.3 L 470.3 403.4 L 470.3 408.5 L 469.5 413.4 L 469.7 418.4 L 469.5 423.4 L 469.2 428.5 L 469.3 433.5 L 468.2 438.5 L 468.3 443.5 L 467.6 448.5 L 468 453.5 L 468.2 458.6 L 468.1 463.6 L 468.1 468.6 L 467.4 473.6 L 466.5 478.5 L 467 483.6 L 466.4 488.6 L 467 493.6 L 466.1 498.6 L 466.2 503.6 L 465.2 508.5 L 465.2 513.5 L 465.7 518.5 L 465.3 523.5 L 464.4 528.4 L 464 533.4 L 465.1 538.4 L 465.6 543.4 L 466 548.4 L 467.2 553.4 Z"/>
<path fill="#141413" d="M 480.9 553.8 L 480.2 556.9 L 478.2 559.5 L 475.3 560.8 L 472.1 560.8 L 469.2 559.5 L 467.2 556.9 L 466.5 553.8 L 467.2 550.7 L 469.2 548.2 L 472.1 546.8 L 475.3 546.8 L 478.2 548.2 L 480.2 550.7 Z"/>
<path fill="#141413" d="M 639.7 391.3 L 639 394.5 L 637 397 L 634.1 398.4 L 630.9 398.4 L 628.1 397 L 626.1 394.5 L 625.3 391.3 L 626.1 388.2 L 628.1 385.7 L 630.9 384.3 L 634.1 384.3 L 637 385.7 L 639 388.2 Z"/>
<path fill="#141413" d="M 639.8 389.3 L 641.4 384.4 L 642.5 379.5 L 643.4 374.4 L 643.8 369.4 L 644.7 364.4 L 644.5 359.4 L 644.9 354.3 L 644.7 349.3 L 644.3 344.3 L 645.1 339.3 L 645.3 334.3 L 645.4 329.3 L 645.8 324.3 L 645.5 319.3 L 646 314.4 L 646.1 309.4 L 646.5 304.4 L 646.4 299.4 L 647.1 294.4 L 647.4 289.4 L 647.6 284.5 L 647.7 279.5 L 648.5 274.5 L 647.8 269.5 L 648.8 264.6 L 649.1 259.6 L 648.9 254.6 L 649.2 249.6 L 650.2 244.7 L 650.8 239.8 L 650.4 234.8 L 650.5 229.8 L 651.8 224.9 L 651.2 219.8 L 651.7 214.9 L 652.1 210.1 L 652.7 205.1 L 652.7 200.1 L 652.6 195.1 L 653.2 190.3 L 653.8 185.5 L 654.2 180.5 L 655.1 175.5 L 656.2 170.8 L 656.6 166.1 L 657.7 161.3 L 658.6 156.3 L 659.2 151.8 L 659.4 147.1 L 660.9 142.4 L 662.3 138.3 L 663.7 134.2 L 665.9 130.4 L 668.2 126.9 L 670.2 123.3 L 673 120.5 L 675.4 117.4 L 678.4 115.4 L 682 113.7 L 685.4 112.3 L 689.1 111.6 L 693.3 110.9 L 697.3 110.8 L 701.5 110.4 L 706.1 111 L 710.6 111.7 L 715 113.5 L 720 113.7 L 724.7 114.8 L 729 115.6 L 732.7 116.3 L 736.2 117.6 L 739.3 119.9 L 742.9 121.9 L 745.9 125 L 748.8 128.4 L 751.6 131.9 L 754.4 135.4 L 757.3 138.9 L 759.7 142.9 L 761.9 147.1 L 764.1 151.2 L 766.9 155 L 769.1 158.9 L 771.3 162.6 L 772.2 166.8 L 773.5 171 L 775.2 175.3 L 776.4 179.7 L 776.4 184.6 L 777.4 189.2 L 778.3 194 L 778.9 198.8 L 779.7 203.7 L 780.6 208.5 L 781.2 213.5 L 781.8 218.6 L 782.8 223.7 L 784.3 226.3 L 796.9 224.7 L 797.9 222.1 L 797.7 217.2 L 797.9 212.3 L 798.5 207.2 L 798.5 202.2 L 798.1 197.1 L 797.6 192 L 796.7 186.8 L 796.2 181.7 L 795.7 176.4 L 794.4 171.2 L 794.2 165.6 L 792.4 160.3 L 790.5 155 L 788.2 149.7 L 785.9 144.7 L 783.3 140 L 780.9 135.3 L 777.1 131.4 L 774 127 L 770.9 122.6 L 767.8 118.1 L 764.4 113.8 L 760.2 110 L 755.8 106.4 L 751.3 102.4 L 745.8 99.6 L 740.1 96.8 L 734.2 94.8 L 728.7 93.8 L 723.9 92 L 718.7 92.1 L 713.5 90.6 L 708 90.2 L 702.5 90.4 L 696.8 91.2 L 690.8 91.1 L 685.1 91.9 L 679.2 93.7 L 673.2 95.9 L 668.3 99.2 L 663.2 103 L 658.4 107 L 654.5 111.5 L 651.1 116.4 L 649.1 121.9 L 647 127 L 644.2 132 L 643.3 137.6 L 641.5 142.4 L 639.5 147.5 L 639.3 152.9 L 637.5 157.7 L 636.9 162.8 L 636.6 168 L 635.8 173.1 L 635.2 178.1 L 634.2 183 L 633.4 188.1 L 633.6 193.3 L 632.2 198.2 L 631.7 203.2 L 631.1 208.1 L 629.9 213.2 L 630.3 218.3 L 630 223.3 L 629.4 228.3 L 628.8 233.2 L 628.6 238.3 L 628.5 243.4 L 627.6 248.3 L 627.8 253.4 L 627.9 258.4 L 626.9 263.4 L 626.8 268.4 L 626.4 273.4 L 626.4 278.4 L 626.6 283.4 L 626.1 288.5 L 626.2 293.5 L 625.9 298.5 L 625.9 303.5 L 625.4 308.5 L 625.2 313.5 L 624.6 318.5 L 625.3 323.5 L 624.5 328.5 L 624.5 333.5 L 624.2 338.5 L 624.4 343.5 L 623.4 348.5 L 623.3 353.5 L 623.3 358.4 L 623.1 363.4 L 623 368.4 L 623.3 373.4 L 623.6 378.3 L 623.5 383.3 L 625.2 388.4 Z"/>
<path fill="#141413" d="M 639.4 388.8 L 638.7 392 L 636.7 394.5 L 633.8 395.9 L 630.6 395.9 L 627.7 394.5 L 625.7 392 L 625 388.8 L 625.7 385.7 L 627.7 383.2 L 630.6 381.8 L 633.8 381.8 L 636.7 383.2 L 638.7 385.7 Z"/>
<path fill="#141413" d="M 797.9 225.5 L 797.1 228.6 L 795.1 231.1 L 792.3 232.5 L 789.1 232.5 L 786.2 231.1 L 784.2 228.6 L 783.5 225.5 L 784.2 222.4 L 786.2 219.9 L 789.1 218.5 L 792.3 218.5 L 795.1 219.9 L 797.1 222.4 Z"/>
</svg>
